%TF.GenerationSoftware,KiCad,Pcbnew,8.0.1*%
%TF.CreationDate,2024-03-27T00:26:04+01:00*%
%TF.ProjectId,recruitment,72656372-7569-4746-9d65-6e742e6b6963,V0*%
%TF.SameCoordinates,Original*%
%TF.FileFunction,Paste,Top*%
%TF.FilePolarity,Positive*%
%FSLAX46Y46*%
G04 Gerber Fmt 4.6, Leading zero omitted, Abs format (unit mm)*
G04 Created by KiCad (PCBNEW 8.0.1) date 2024-03-27 00:26:04*
%MOMM*%
%LPD*%
G01*
G04 APERTURE LIST*
%ADD10C,0.000000*%
%ADD11R,0.558800X1.320800*%
%ADD12R,0.025400X0.025400*%
%ADD13R,2.450000X1.600000*%
%ADD14R,0.508000X1.600200*%
%ADD15R,0.889000X0.609600*%
%ADD16R,1.803400X1.701800*%
G04 APERTURE END LIST*
D10*
%TO.C,U4*%
G36*
X120999800Y-103739999D02*
G01*
X120829800Y-103909999D01*
X120699800Y-103909999D01*
X120699800Y-103459999D01*
X120999800Y-103459999D01*
X120999800Y-103739999D01*
G37*
G36*
X121799800Y-103909999D02*
G01*
X121669800Y-103909999D01*
X121499800Y-103739999D01*
X121499800Y-103459999D01*
X121799800Y-103459999D01*
X121799800Y-103909999D01*
G37*
G36*
X121594800Y-104109999D02*
G01*
X121774800Y-104109999D01*
X121774800Y-104309999D01*
X121594800Y-104309999D01*
X121249800Y-104655474D01*
X120804325Y-104209999D01*
X121249800Y-103764524D01*
X121594800Y-104109999D01*
G37*
G36*
X121799800Y-104959999D02*
G01*
X121499800Y-104959999D01*
X121499800Y-104679999D01*
X121669800Y-104509999D01*
X121799800Y-104509999D01*
X121799800Y-104959999D01*
G37*
G36*
X120999800Y-104679999D02*
G01*
X120999800Y-104959999D01*
X120699800Y-104959999D01*
X120699800Y-104509999D01*
X120829800Y-104509999D01*
X120999800Y-104679999D01*
G37*
%TD*%
D11*
%TO.C,U5*%
X120399999Y-100393600D03*
X122300001Y-100393600D03*
X121350000Y-98260000D03*
%TD*%
D12*
%TO.C,U4*%
X120850000Y-103760000D03*
X120850000Y-104659998D03*
X121649600Y-104659998D03*
X121649600Y-103760000D03*
X121249800Y-104209999D03*
%TD*%
D13*
%TO.C,U3*%
X126850000Y-101260000D03*
X126850000Y-103800000D03*
X126850000Y-113960000D03*
X126850000Y-116500000D03*
X143000000Y-116500000D03*
X143000000Y-113960000D03*
X143000000Y-101260000D03*
%TD*%
D14*
%TO.C,U1*%
X152550001Y-81760000D03*
X154150000Y-81760000D03*
X155750000Y-81760000D03*
D15*
X151350000Y-79260000D03*
X156949999Y-79260000D03*
D16*
X152650003Y-76910000D03*
X155649997Y-76910000D03*
%TD*%
M02*
