%TF.GenerationSoftware,KiCad,Pcbnew,8.0.1*%
%TF.CreationDate,2024-03-27T00:26:19+01:00*%
%TF.ProjectId,recruitment,72656372-7569-4746-9d65-6e742e6b6963,V0*%
%TF.SameCoordinates,Original*%
%TF.FileFunction,Soldermask,Bot*%
%TF.FilePolarity,Negative*%
%FSLAX46Y46*%
G04 Gerber Fmt 4.6, Leading zero omitted, Abs format (unit mm)*
G04 Created by KiCad (PCBNEW 8.0.1) date 2024-03-27 00:26:19*
%MOMM*%
%LPD*%
G01*
G04 APERTURE LIST*
%ADD10C,3.000000*%
%ADD11C,1.651000*%
%ADD12C,1.400000*%
%ADD13O,1.400000X1.400000*%
%ADD14O,1.200000X1.200000*%
%ADD15O,1.600000X1.200000*%
%ADD16R,1.850000X1.850000*%
%ADD17C,1.850000*%
%ADD18O,2.000000X2.000000*%
%ADD19R,2.000000X2.000000*%
G04 APERTURE END LIST*
D10*
%TO.C,REF\u002A\u002A*%
X155350000Y-67260000D03*
%TD*%
%TO.C,REF\u002A\u002A*%
X106850000Y-66760000D03*
%TD*%
D11*
%TO.C,U8*%
X114192800Y-93540000D03*
X114192800Y-83380000D03*
X114192800Y-75760000D03*
X104032800Y-91000000D03*
X104032800Y-93540000D03*
%TD*%
%TO.C,U7*%
X128350000Y-93540000D03*
X128350000Y-83380000D03*
X128350000Y-75760000D03*
X118190000Y-91000000D03*
X118190000Y-93540000D03*
%TD*%
%TO.C,U6*%
X142507200Y-93540000D03*
X142507200Y-83380000D03*
X142507200Y-75760000D03*
X132347200Y-91000000D03*
X132347200Y-93540000D03*
%TD*%
D12*
%TO.C,Rf1*%
X148602500Y-108950000D03*
D13*
X148602500Y-103870000D03*
%TD*%
D12*
%TO.C,R5*%
X157850000Y-108800000D03*
D13*
X157850000Y-103720000D03*
%TD*%
D12*
%TO.C,R2*%
X154700000Y-108800000D03*
D13*
X154700000Y-103720000D03*
%TD*%
D12*
%TO.C,R1*%
X151550000Y-108800000D03*
D13*
X151550000Y-103720000D03*
%TD*%
D14*
%TO.C,Q2*%
X109390000Y-101220000D03*
X106850000Y-103760000D03*
D15*
X104310000Y-101220000D03*
%TD*%
%TO.C,Q1*%
X151270000Y-117760000D03*
D14*
X153810000Y-120300000D03*
X156350000Y-117760000D03*
%TD*%
D16*
%TO.C,PS1*%
X105140000Y-121450000D03*
D17*
X107680000Y-121450000D03*
X115300000Y-121450000D03*
X117840000Y-121450000D03*
X120380000Y-121450000D03*
%TD*%
D18*
%TO.C,Cf1*%
X157350000Y-85260000D03*
D19*
X157350000Y-100260000D03*
%TD*%
D18*
%TO.C,Cbyp3*%
X106850000Y-108982500D03*
D19*
X121850000Y-108982500D03*
%TD*%
D18*
%TO.C,Cbyp2*%
X106850000Y-115517500D03*
D19*
X121850000Y-115517500D03*
%TD*%
%TO.C,Cbyp1*%
X150815000Y-100260000D03*
D18*
X150815000Y-85260000D03*
%TD*%
M02*
