%TF.GenerationSoftware,KiCad,Pcbnew,8.0.1*%
%TF.CreationDate,2024-03-27T00:26:16+01:00*%
%TF.ProjectId,recruitment,72656372-7569-4746-9d65-6e742e6b6963,V0*%
%TF.SameCoordinates,Original*%
%TF.FileFunction,Soldermask,Top*%
%TF.FilePolarity,Negative*%
%FSLAX46Y46*%
G04 Gerber Fmt 4.6, Leading zero omitted, Abs format (unit mm)*
G04 Created by KiCad (PCBNEW 8.0.1) date 2024-03-27 00:26:16*
%MOMM*%
%LPD*%
G01*
G04 APERTURE LIST*
%ADD10C,0.000000*%
%ADD11C,3.000000*%
%ADD12C,1.651000*%
%ADD13R,0.558800X1.320800*%
%ADD14R,0.025400X0.025400*%
%ADD15R,2.450000X1.600000*%
%ADD16R,0.508000X1.600200*%
%ADD17R,0.889000X0.609600*%
%ADD18R,1.803400X1.701800*%
%ADD19C,1.400000*%
%ADD20O,1.400000X1.400000*%
%ADD21O,1.200000X1.200000*%
%ADD22O,1.600000X1.200000*%
%ADD23R,1.850000X1.850000*%
%ADD24C,1.850000*%
%ADD25O,2.000000X2.000000*%
%ADD26R,2.000000X2.000000*%
G04 APERTURE END LIST*
D10*
%TO.C,U4*%
G36*
X120999800Y-103739999D02*
G01*
X120829800Y-103909999D01*
X120699800Y-103909999D01*
X120699800Y-103459999D01*
X120999800Y-103459999D01*
X120999800Y-103739999D01*
G37*
G36*
X121799800Y-103909999D02*
G01*
X121669800Y-103909999D01*
X121499800Y-103739999D01*
X121499800Y-103459999D01*
X121799800Y-103459999D01*
X121799800Y-103909999D01*
G37*
G36*
X121594800Y-104109999D02*
G01*
X121774800Y-104109999D01*
X121774800Y-104309999D01*
X121594800Y-104309999D01*
X121249800Y-104655474D01*
X120804325Y-104209999D01*
X121249800Y-103764524D01*
X121594800Y-104109999D01*
G37*
G36*
X121799800Y-104959999D02*
G01*
X121499800Y-104959999D01*
X121499800Y-104679999D01*
X121669800Y-104509999D01*
X121799800Y-104509999D01*
X121799800Y-104959999D01*
G37*
G36*
X120999800Y-104679999D02*
G01*
X120999800Y-104959999D01*
X120699800Y-104959999D01*
X120699800Y-104509999D01*
X120829800Y-104509999D01*
X120999800Y-104679999D01*
G37*
%TD*%
D11*
%TO.C,REF\u002A\u002A*%
X155350000Y-67260000D03*
%TD*%
%TO.C,REF\u002A\u002A*%
X106850000Y-66760000D03*
%TD*%
D12*
%TO.C,U8*%
X114192800Y-93540000D03*
X114192800Y-83380000D03*
X114192800Y-75760000D03*
X104032800Y-91000000D03*
X104032800Y-93540000D03*
%TD*%
%TO.C,U7*%
X128350000Y-93540000D03*
X128350000Y-83380000D03*
X128350000Y-75760000D03*
X118190000Y-91000000D03*
X118190000Y-93540000D03*
%TD*%
%TO.C,U6*%
X142507200Y-93540000D03*
X142507200Y-83380000D03*
X142507200Y-75760000D03*
X132347200Y-91000000D03*
X132347200Y-93540000D03*
%TD*%
D13*
%TO.C,U5*%
X120399999Y-100393600D03*
X122300001Y-100393600D03*
X121350000Y-98260000D03*
%TD*%
D14*
%TO.C,U4*%
X120850000Y-103760000D03*
X120850000Y-104659998D03*
X121649600Y-104659998D03*
X121649600Y-103760000D03*
X121249800Y-104209999D03*
%TD*%
D15*
%TO.C,U3*%
X126850000Y-101260000D03*
X126850000Y-103800000D03*
X126850000Y-113960000D03*
X126850000Y-116500000D03*
X143000000Y-116500000D03*
X143000000Y-113960000D03*
X143000000Y-101260000D03*
%TD*%
D16*
%TO.C,U1*%
X152550001Y-81760000D03*
X154150000Y-81760000D03*
X155750000Y-81760000D03*
D17*
X151350000Y-79260000D03*
X156949999Y-79260000D03*
D18*
X152650003Y-76910000D03*
X155649997Y-76910000D03*
%TD*%
D19*
%TO.C,Rf1*%
X148602500Y-108950000D03*
D20*
X148602500Y-103870000D03*
%TD*%
D19*
%TO.C,R5*%
X157850000Y-108800000D03*
D20*
X157850000Y-103720000D03*
%TD*%
D19*
%TO.C,R2*%
X154700000Y-108800000D03*
D20*
X154700000Y-103720000D03*
%TD*%
D19*
%TO.C,R1*%
X151550000Y-108800000D03*
D20*
X151550000Y-103720000D03*
%TD*%
D21*
%TO.C,Q2*%
X109390000Y-101220000D03*
X106850000Y-103760000D03*
D22*
X104310000Y-101220000D03*
%TD*%
%TO.C,Q1*%
X151270000Y-117760000D03*
D21*
X153810000Y-120300000D03*
X156350000Y-117760000D03*
%TD*%
D23*
%TO.C,PS1*%
X105140000Y-121450000D03*
D24*
X107680000Y-121450000D03*
X115300000Y-121450000D03*
X117840000Y-121450000D03*
X120380000Y-121450000D03*
%TD*%
D25*
%TO.C,Cf1*%
X157350000Y-85260000D03*
D26*
X157350000Y-100260000D03*
%TD*%
D25*
%TO.C,Cbyp3*%
X106850000Y-108982500D03*
D26*
X121850000Y-108982500D03*
%TD*%
D25*
%TO.C,Cbyp2*%
X106850000Y-115517500D03*
D26*
X121850000Y-115517500D03*
%TD*%
%TO.C,Cbyp1*%
X150815000Y-100260000D03*
D25*
X150815000Y-85260000D03*
%TD*%
M02*
