%TF.GenerationSoftware,KiCad,Pcbnew,8.0.1*%
%TF.CreationDate,2024-03-27T00:26:00+01:00*%
%TF.ProjectId,recruitment,72656372-7569-4746-9d65-6e742e6b6963,V0*%
%TF.SameCoordinates,Original*%
%TF.FileFunction,Copper,L2,Bot*%
%TF.FilePolarity,Positive*%
%FSLAX46Y46*%
G04 Gerber Fmt 4.6, Leading zero omitted, Abs format (unit mm)*
G04 Created by KiCad (PCBNEW 8.0.1) date 2024-03-27 00:26:00*
%MOMM*%
%LPD*%
G01*
G04 APERTURE LIST*
%TA.AperFunction,ComponentPad*%
%ADD10C,3.000000*%
%TD*%
%TA.AperFunction,ComponentPad*%
%ADD11C,1.651000*%
%TD*%
%TA.AperFunction,ComponentPad*%
%ADD12C,1.400000*%
%TD*%
%TA.AperFunction,ComponentPad*%
%ADD13O,1.400000X1.400000*%
%TD*%
%TA.AperFunction,ComponentPad*%
%ADD14O,1.200000X1.200000*%
%TD*%
%TA.AperFunction,ComponentPad*%
%ADD15O,1.600000X1.200000*%
%TD*%
%TA.AperFunction,ComponentPad*%
%ADD16R,1.850000X1.850000*%
%TD*%
%TA.AperFunction,ComponentPad*%
%ADD17C,1.850000*%
%TD*%
%TA.AperFunction,ComponentPad*%
%ADD18O,2.000000X2.000000*%
%TD*%
%TA.AperFunction,ComponentPad*%
%ADD19R,2.000000X2.000000*%
%TD*%
%TA.AperFunction,ViaPad*%
%ADD20C,0.800000*%
%TD*%
%TA.AperFunction,Conductor*%
%ADD21C,0.250000*%
%TD*%
G04 APERTURE END LIST*
D10*
%TO.P,REF\u002A\u002A,1*%
%TO.N,N/C*%
X155350000Y-67260000D03*
%TD*%
%TO.P,REF\u002A\u002A,1*%
%TO.N,N/C*%
X106850000Y-66760000D03*
%TD*%
D11*
%TO.P,U8,1,1*%
%TO.N,/Relay block/Activate*%
X114192800Y-93540000D03*
%TO.P,U8,3,3*%
%TO.N,LOAD SUPPLY*%
X114192800Y-83380000D03*
%TO.P,U8,4,4*%
%TO.N,GND*%
X114192800Y-75760000D03*
%TO.P,U8,5,5*%
%TO.N,/Relay block/Load out*%
X104032800Y-91000000D03*
%TO.P,U8,6*%
%TO.N,N/C*%
X104032800Y-93540000D03*
%TD*%
%TO.P,U7,1,1*%
%TO.N,/Relay block/Activate*%
X128350000Y-93540000D03*
%TO.P,U7,3,3*%
%TO.N,LOAD SUPPLY*%
X128350000Y-83380000D03*
%TO.P,U7,4,4*%
%TO.N,GND*%
X128350000Y-75760000D03*
%TO.P,U7,5,5*%
%TO.N,/Relay block/Load out*%
X118190000Y-91000000D03*
%TO.P,U7,6*%
%TO.N,N/C*%
X118190000Y-93540000D03*
%TD*%
%TO.P,U6,1,1*%
%TO.N,/Relay block/Activate*%
X142507200Y-93540000D03*
%TO.P,U6,3,3*%
%TO.N,LOAD SUPPLY*%
X142507200Y-83380000D03*
%TO.P,U6,4,4*%
%TO.N,GND*%
X142507200Y-75760000D03*
%TO.P,U6,5,5*%
%TO.N,/Relay block/Load out*%
X132347200Y-91000000D03*
%TO.P,U6,6*%
%TO.N,N/C*%
X132347200Y-93540000D03*
%TD*%
D12*
%TO.P,Rf1,1*%
%TO.N,Net-(Rf1-Pad1)*%
X148602500Y-108950000D03*
D13*
%TO.P,Rf1,2*%
%TO.N,signal*%
X148602500Y-103870000D03*
%TD*%
D12*
%TO.P,R5,1*%
%TO.N,5V*%
X157850000Y-108800000D03*
D13*
%TO.P,R5,2*%
%TO.N,Net-(Q2-C)*%
X157850000Y-103720000D03*
%TD*%
D12*
%TO.P,R2,1*%
%TO.N,Net-(Q1-B)*%
X154700000Y-108800000D03*
D13*
%TO.P,R2,2*%
%TO.N,Net-(R2-Pad2)*%
X154700000Y-103720000D03*
%TD*%
D12*
%TO.P,R1,1*%
%TO.N,5V*%
X151550000Y-108800000D03*
D13*
%TO.P,R1,2*%
%TO.N,Net-(Q1-C)*%
X151550000Y-103720000D03*
%TD*%
D14*
%TO.P,Q2,3,C*%
%TO.N,Net-(Q2-C)*%
X109390000Y-101220000D03*
%TO.P,Q2,2,B*%
%TO.N,Net-(Q2-B)*%
X106850000Y-103760000D03*
D15*
%TO.P,Q2,1,E*%
%TO.N,/Relay block/Reset*%
X104310000Y-101220000D03*
%TD*%
%TO.P,Q1,1,E*%
%TO.N,/Relay block/Activate*%
X151270000Y-117760000D03*
D14*
%TO.P,Q1,2,B*%
%TO.N,Net-(Q1-B)*%
X153810000Y-120300000D03*
%TO.P,Q1,3,C*%
%TO.N,Net-(Q1-C)*%
X156350000Y-117760000D03*
%TD*%
D16*
%TO.P,PS1,1,+Vin*%
%TO.N,5V*%
X105140000Y-121450000D03*
D17*
%TO.P,PS1,2,-Vin*%
%TO.N,Net-(PS1--Vin)*%
X107680000Y-121450000D03*
%TO.P,PS1,4,-Vout*%
%TO.N,GND*%
X115300000Y-121450000D03*
%TO.P,PS1,5,0V*%
%TO.N,unconnected-(PS1-0V-Pad5)*%
X117840000Y-121450000D03*
%TO.P,PS1,6,+Vout*%
%TO.N,3\u002C3V*%
X120380000Y-121450000D03*
%TD*%
D18*
%TO.P,Cf1,2*%
%TO.N,GND*%
X157350000Y-85260000D03*
D19*
%TO.P,Cf1,1*%
%TO.N,signal*%
X157350000Y-100260000D03*
%TD*%
D18*
%TO.P,Cbyp3,2*%
%TO.N,GND*%
X106850000Y-108982500D03*
D19*
%TO.P,Cbyp3,1*%
%TO.N,trigger value*%
X121850000Y-108982500D03*
%TD*%
D18*
%TO.P,Cbyp2,2*%
%TO.N,GND*%
X106850000Y-115517500D03*
D19*
%TO.P,Cbyp2,1*%
%TO.N,3\u002C3V*%
X121850000Y-115517500D03*
%TD*%
%TO.P,Cbyp1,1*%
%TO.N,GND*%
X150815000Y-100260000D03*
D18*
%TO.P,Cbyp1,2*%
%TO.N,3\u002C3V*%
X150815000Y-85260000D03*
%TD*%
D20*
%TO.N,GND*%
X124500000Y-95275000D03*
X125000000Y-88500000D03*
%TO.N,/Relay block/Load out*%
X148000000Y-75500000D03*
%TO.N,Net-(Rf1-Pad1)*%
X146500000Y-97000000D03*
%TO.N,GND*%
X126000000Y-97500000D03*
X122500000Y-96500000D03*
%TO.N,Net-(PS1--Vin)*%
X141289757Y-115347096D03*
%TO.N,LOAD SYSTEM*%
X155350000Y-70760000D03*
%TD*%
D21*
%TO.N,GND*%
X128350000Y-75760000D02*
X125000000Y-79110000D01*
X124000000Y-96500000D02*
X125000000Y-96500000D01*
X125000000Y-79110000D02*
X125000000Y-88500000D01*
X124500000Y-96000000D02*
X124000000Y-96500000D01*
X124500000Y-95275000D02*
X124500000Y-96000000D01*
X122500000Y-96500000D02*
X124000000Y-96500000D01*
%TO.N,/Relay block/Load out*%
X118190000Y-91000000D02*
X104032800Y-91000000D01*
X132347200Y-91000000D02*
X118190000Y-91000000D01*
X148000000Y-79514253D02*
X136514253Y-91000000D01*
X148000000Y-75500000D02*
X148000000Y-79514253D01*
X136514253Y-91000000D02*
X132347200Y-91000000D01*
%TO.N,Net-(Rf1-Pad1)*%
X146500000Y-106847500D02*
X146500000Y-97000000D01*
X148602500Y-108950000D02*
X146500000Y-106847500D01*
%TO.N,Net-(Q1-C)*%
X151550000Y-103720000D02*
X156350000Y-108520000D01*
X156350000Y-108520000D02*
X156350000Y-117760000D01*
%TO.N,signal*%
X148602500Y-103870000D02*
X149855000Y-103870000D01*
X158875000Y-101785000D02*
X157350000Y-100260000D01*
X149855000Y-103870000D02*
X152500000Y-101225000D01*
X152500000Y-101225000D02*
X153905431Y-101225000D01*
X157425431Y-104745000D02*
X158274569Y-104745000D01*
X153905431Y-101225000D02*
X157425431Y-104745000D01*
X158274569Y-104745000D02*
X158875000Y-104144569D01*
X158875000Y-104144569D02*
X158875000Y-101785000D01*
%TO.N,Net-(Q2-C)*%
X109390000Y-101220000D02*
X109390000Y-100371472D01*
X109390000Y-100371472D02*
X117371972Y-92389500D01*
X117371972Y-92389500D02*
X146519500Y-92389500D01*
X146519500Y-92389500D02*
X157850000Y-103720000D01*
%TO.N,GND*%
X125000000Y-96500000D02*
X126000000Y-97500000D01*
X126500000Y-100500000D02*
X126500000Y-101000000D01*
%TO.N,Net-(PS1--Vin)*%
X141652904Y-115347096D02*
X141289757Y-115347096D01*
X141750000Y-115250000D02*
X141652904Y-115347096D01*
X108930000Y-120200000D02*
X136800000Y-120200000D01*
X107680000Y-121450000D02*
X108930000Y-120200000D01*
X136800000Y-120200000D02*
X141750000Y-115250000D01*
%TO.N,/Relay block/Activate*%
X151270000Y-117760000D02*
X142507200Y-108997200D01*
X142507200Y-108997200D02*
X142507200Y-93540000D01*
%TO.N,Net-(Q1-B)*%
X153810000Y-120300000D02*
X153810000Y-109690000D01*
X153810000Y-109690000D02*
X154700000Y-108800000D01*
%TD*%
M02*
